<svg width="199" height="199" viewBox="0 0 199 199" fill="none" xmlns="http://www.w3.org/2000/svg">
<g id="Logo 2">
<circle id="Ellipse 14" cx="99.5" cy="99.5" r="99.5" fill="#3AD29F"/>
<g id="Ellipse 15" filter="url(#filter0_d)">
<circle cx="99.5" cy="99.5" r="86.5" fill="#4D8AF0"/>
</g>
<path id="Vector" d="M137.591 130C133.9 130 129.529 129.36 124.558 128.077L124.848 126.773C135.285 129.467 143.183 129.243 147.087 126.141C148.932 124.675 149.828 122.601 149.751 119.977C149.449 109.822 135.253 93.3034 114.424 78.8732C103.867 71.5593 92.6555 65.4682 82 61.2585L82.4287 60C93.1686 64.243 104.465 70.3793 115.097 77.7455C136.255 92.4038 150.681 109.358 150.995 119.934C151.086 123.026 150.02 125.477 147.826 127.22C145.495 129.072 142.037 130 137.591 130Z" fill="#3F3D56"/>
<path id="Vector_2" d="M101 169C118.673 169 133 165.194 133 160.5C133 155.806 118.673 152 101 152C83.3269 152 69 155.806 69 160.5C69 165.194 83.3269 169 101 169Z" fill="#F7782F"/>
<path id="Vector_3" d="M136 62.6131C136 82.834 99.5 140 99.5 140C99.5 140 63 82.834 63 62.6131C63 52.9027 66.8455 43.59 73.6906 36.7237C80.5357 29.8574 89.8196 26 99.5 26C109.18 26 118.464 29.8574 125.309 36.7237C132.154 43.59 136 52.9027 136 62.6131Z" fill="#F7782F"/>
<path id="Vector_4" d="M99.5 84C110.822 84 120 74.598 120 63C120 51.402 110.822 42 99.5 42C88.1782 42 79 51.402 79 63C79 74.598 88.1782 84 99.5 84Z" fill="#F2F2F2"/>
<g id="Lot">
<path id="Vector_5" d="M167.692 97.3422C169.179 97.3422 170.384 96.1463 170.384 94.6711C170.384 93.1959 169.179 92 167.692 92C166.205 92 165 93.1959 165 94.6711C165 96.1463 166.205 97.3422 167.692 97.3422Z" fill="#E5E5E5"/>
<path id="Vector_6" d="M38.6921 101.342C40.179 101.342 41.3843 100.146 41.3843 98.6711C41.3843 97.1959 40.179 96 38.6921 96C37.2053 96 36 97.1959 36 98.6711C36 100.146 37.2053 101.342 38.6921 101.342Z" fill="#E5E5E5"/>
<path id="Vector_7" d="M108.892 124.051C98.4187 119.738 88.357 114.501 78.8284 108.402C55.9468 93.7984 40.3453 76.9078 40.0059 66.3712C39.9067 63.2917 41.0596 60.8495 43.4328 59.1129C47.2716 56.3033 54.1155 55.6292 63.2252 57.1619L63.0002 58.4788C54.2594 57.0076 47.7694 57.5986 44.2318 60.1876C42.2362 61.6481 41.2671 63.714 41.3512 66.3286C41.6771 76.4457 57.0307 92.9022 79.5566 107.278C89.016 113.334 99.0048 118.533 109.402 122.815L108.892 124.051Z" fill="#3F3D56"/>
<path id="Vector_8" d="M41.0382 71.0133C43.2685 71.0133 45.0764 69.2195 45.0764 67.0066C45.0764 64.7938 43.2685 63 41.0382 63C38.808 63 37 64.7938 37 67.0066C37 69.2195 38.808 71.0133 41.0382 71.0133Z" fill="#6C63FF"/>
<path id="Vector_9" d="M117.515 130.831C119.745 130.831 121.553 129.037 121.553 126.824C121.553 124.611 119.745 122.817 117.515 122.817C115.285 122.817 113.477 124.611 113.477 126.824C113.477 129.037 115.285 130.831 117.515 130.831Z" fill="#6C63FF"/>
<path id="Vector_10" d="M146.692 155.342C148.179 155.342 149.384 154.146 149.384 152.671C149.384 151.196 148.179 150 146.692 150C145.205 150 144 151.196 144 152.671C144 154.146 145.205 155.342 146.692 155.342Z" fill="#E5E5E5"/>
<path id="Vector_11" d="M63.6723 37.3422C65.1592 37.3422 66.3645 36.1463 66.3645 34.6711C66.3645 33.1959 65.1592 32 63.6723 32C62.1855 32 60.9802 33.1959 60.9802 34.6711C60.9802 36.1463 62.1855 37.3422 63.6723 37.3422Z" fill="#E5E5E5"/>
<path id="Vector_12" d="M151.038 75.0133C153.268 75.0133 155.076 73.2195 155.076 71.0066C155.076 68.7938 153.268 67 151.038 67C148.808 67 147 68.7938 147 71.0066C147 73.2195 148.808 75.0133 151.038 75.0133Z" fill="#6C63FF"/>
<path id="Vector_13" d="M51.0382 144.013C53.2685 144.013 55.0764 142.219 55.0764 140.007C55.0764 137.794 53.2685 136 51.0382 136C48.808 136 47 137.794 47 140.007C47 142.219 48.808 144.013 51.0382 144.013Z" fill="#6C63FF"/>
</g>
</g>
<defs>
<filter id="filter0_d" x="9" y="13" width="181" height="181" filterUnits="userSpaceOnUse" color-interpolation-filters="sRGB">
<feFlood flood-opacity="0" result="BackgroundImageFix"/>
<feColorMatrix in="SourceAlpha" type="matrix" values="0 0 0 0 0 0 0 0 0 0 0 0 0 0 0 0 0 0 127 0"/>
<feOffset dy="4"/>
<feGaussianBlur stdDeviation="2"/>
<feColorMatrix type="matrix" values="0 0 0 0 0 0 0 0 0 0 0 0 0 0 0 0 0 0 0.25 0"/>
<feBlend mode="normal" in2="BackgroundImageFix" result="effect1_dropShadow"/>
<feBlend mode="normal" in="SourceGraphic" in2="effect1_dropShadow" result="shape"/>
</filter>
</defs>
</svg>
