<svg width="1909" height="785" viewBox="0 0 1909 785" fill="none" xmlns="http://www.w3.org/2000/svg">
<g clip-path="url(#clip0)">
<path d="M1535.49 493.085L1525.69 527.009L1515.89 560.932H1535.49H1555.08L1545.28 527.009L1535.49 493.085Z" fill="#3AD29F"/>
<path d="M1516.19 488.49L1506.4 522.413L1496.6 556.346H1516.19H1535.79L1525.99 522.413L1516.19 488.49Z" fill="#3AD29F"/>
<path d="M1496.91 488.49L1487.11 522.413L1477.31 556.346H1496.91H1516.5L1506.7 522.413L1496.91 488.49Z" fill="#3AD29F"/>
<path d="M1347.93 509.203L1338.13 543.126L1328.33 577.06H1347.93H1367.52L1357.72 543.126L1347.93 509.203Z" fill="#3AD29F"/>
<path d="M2092 784.873L2054.91 610.232L2027.59 574.133L2000.26 527.301L1949.51 497.056L1911.45 475.592L1895.83 522.423L1865.83 542.502L1847.03 570.23L1817.75 560.473L1780.67 530.228L1752.36 522.423L1712.35 497.056L1675.26 506.813L1637.2 493.154L1611.83 475.592L1587.43 504.861L1573.76 542.912L1570.84 556.571H1535.7H1496.66L1472.26 530.228L1434.2 522.423H1397.11L1371.74 530.228L1326.84 542.912L1227.3 784.873H2092Z" fill="#E0E0E0"/>
<g opacity="0.3">
<path opacity="0.3" d="M1813.93 269.427H1935.18C1943.3 269.427 1949.88 276.005 1949.88 284.12C1949.88 292.235 1943.3 298.813 1935.18 298.813H1813.93C1805.81 298.813 1799.23 292.235 1799.23 284.12C1799.23 276.005 1805.81 269.427 1813.93 269.427Z" fill="#F9965D"/>
<path opacity="0.3" d="M1850.67 298.813H1971.93C1980.04 298.813 1986.62 305.392 1986.62 313.507C1986.62 321.622 1980.04 328.2 1971.93 328.2H1850.67C1842.56 328.2 1835.98 321.622 1835.98 313.507C1835.98 305.392 1842.56 298.813 1850.67 298.813Z" fill="#F9965D"/>
<path opacity="0.3" d="M1813.93 328.2H1935.18C1943.3 328.2 1949.88 334.779 1949.88 342.893C1949.88 351.008 1943.3 357.587 1935.18 357.587H1813.93C1805.81 357.587 1799.23 351.008 1799.23 342.893C1799.23 334.779 1805.81 328.2 1813.93 328.2Z" fill="#F9965D"/>
</g>
<g opacity="0.5">
<path opacity="0.5" d="M1675.26 751.028H1871.43L1859.95 234.938H1686.75L1675.26 751.028Z" fill="url(#paint0_linear)"/>
</g>
<path d="M1679.09 751.028H1867.4L1856.38 234.938H1690.12L1679.09 751.028Z" fill="white"/>
<g opacity="0.05">
<path opacity="0.05" d="M1822.39 751.028H1867.4L1856.38 234.938H1833.42L1822.39 751.028Z" fill="black"/>
</g>
<path d="M1895.88 556.346H1649.69C1649.69 565.602 1653.37 574.479 1659.92 581.024C1666.47 587.569 1675.34 591.245 1684.6 591.245H1860.97C1870.23 591.245 1879.11 587.569 1885.66 581.024C1892.2 574.479 1895.88 565.602 1895.88 556.346Z" fill="#4D8AF0"/>
<path d="M1895.88 382.817H1649.69C1649.69 392.073 1653.37 400.95 1659.92 407.494C1666.47 414.039 1675.34 417.716 1684.6 417.716H1860.97C1870.23 417.716 1879.11 414.039 1885.66 407.494C1892.2 400.95 1895.88 392.073 1895.88 382.817Z" fill="#4D8AF0"/>
<path d="M1772.79 353.86C1747.93 353.86 1727.78 333.714 1727.78 308.863C1727.78 284.012 1747.93 263.866 1772.79 263.866C1797.65 263.866 1817.8 284.012 1817.8 308.863C1817.8 333.714 1797.65 353.86 1772.79 353.86Z" fill="#F9965D"/>
<path opacity="0.1" d="M1682.77 591.236H1863.73V593.987H1682.77V591.236Z" fill="black"/>
<path opacity="0.1" d="M1686.44 417.677H1860.97V419.511H1686.44V417.677Z" fill="black"/>
<path d="M1723.18 751.028H1781.06V671.59C1781.06 663.918 1778.01 656.56 1772.58 651.135C1767.16 645.71 1759.8 642.662 1752.12 642.662C1744.45 642.665 1737.09 645.714 1731.66 651.138C1726.24 656.563 1723.19 663.919 1723.18 671.59V751.028Z" fill="#E0E0E0"/>
<path d="M1229.9 785H2091.55C2091.55 785 2035.92 657.19 1951.6 634.574C1939.44 631.246 1926.75 630.347 1914.25 631.93C1893.91 634.515 1875.51 645.179 1862.44 660.975C1834.8 694.381 1750.16 767.175 1580.8 683.991C1580.8 683.991 1520.17 623.383 1422.8 695.006C1416.77 698.005 1410.58 700.675 1404.26 703.006C1374.38 714.295 1314.63 730.022 1272.14 696.84C1213.36 650.926 1229.9 785 1229.9 785Z" fill="#4D8AF0"/>
<g opacity="0.3">
<path opacity="0.3" d="M1400.15 443.152H1368C1368 443.152 1380.11 464.577 1400.15 443.152Z" fill="#030B44"/>
<path opacity="0.3" d="M1398.21 452.265L1377.13 428C1377.13 428 1368.89 451.191 1398.21 452.265Z" fill="#030B44"/>
</g>
<g opacity="0.3">
<path opacity="0.3" d="M1587.23 414.926H1555.08C1555.08 414.926 1567.19 436.351 1587.23 414.926Z" fill="#030B44"/>
<path opacity="0.3" d="M1585.29 424.038L1564.22 399.774C1564.22 399.774 1555.97 422.965 1585.29 424.038Z" fill="#030B44"/>
</g>
<g opacity="0.3">
<path opacity="0.3" d="M1608.48 168.254H1574C1574 168.254 1586.99 191.28 1608.48 168.254Z" fill="#030B44"/>
<path opacity="0.3" d="M1606.4 178.04L1583.79 152C1583.79 152 1574.95 176.879 1606.4 178.04Z" fill="#030B44"/>
</g>
<g opacity="0.05">
<path opacity="0.05" d="M1865.83 591.099C1864.85 591.187 1863.83 591.236 1862.81 591.236H1827.68L1828.42 556.346H1865.06L1865.83 591.099Z" fill="black"/>
</g>
<g opacity="0.05">
<path opacity="0.05" d="M1830.26 382.788H1859.54L1860.29 417.677H1829.51L1830.26 382.788Z" fill="black"/>
</g>
<path d="M1179.41 543.965C1179.03 543.965 1178.65 543.811 1178.38 543.537C1178.11 543.262 1177.95 542.89 1177.95 542.502C1177.95 542.114 1178.11 541.742 1178.38 541.467C1178.65 541.193 1179.03 541.039 1179.41 541.039C1179.8 541.039 1180.18 541.193 1180.45 541.467C1180.72 541.742 1180.88 542.114 1180.88 542.502C1180.88 542.89 1180.72 543.262 1180.45 543.537C1180.18 543.811 1179.8 543.965 1179.41 543.965Z" fill="#4D8AF0"/>
<path d="M1649.23 198.624C1649.23 232.957 1704.76 260.783 1773.25 260.783C1841.74 260.783 1897.27 232.957 1897.27 198.624C1897.27 164.291 1841.74 95 1773.25 95C1704.76 95 1649.23 164.301 1649.23 198.624Z" fill="#4D8AF0"/>
<g opacity="0.05">
<path opacity="0.05" d="M1897.99 198.624C1897.99 232.957 1842.47 260.783 1773.97 260.783V95C1842.47 95 1897.99 164.301 1897.99 198.624Z" fill="black"/>
</g>
<g opacity="0.3">
<path opacity="0.3" d="M1515.66 297.774H1444C1444 297.774 1471 345.532 1515.66 297.774Z" fill="#030B44"/>
<path opacity="0.3" d="M1511.33 318.087L1464.34 264C1464.34 264 1445.98 315.695 1511.33 318.087Z" fill="#030B44"/>
</g>
</g>
<path d="M-280.854 809.829H580.795C580.795 809.829 525.165 682.019 440.842 659.403C428.687 656.075 415.994 655.176 403.492 656.759C383.152 659.344 364.756 670.008 351.687 685.804C324.048 719.21 239.403 792.004 70.0437 708.82C70.0437 708.82 9.41681 648.212 -87.9551 719.835C-93.9875 722.834 -100.178 725.504 -106.498 727.835C-136.373 739.124 -196.131 754.851 -238.615 721.669C-297.397 675.755 -280.854 809.829 -280.854 809.829Z" fill="#4D8AF0"/>
<path d="M472.146 795.829H1333.79C1333.79 795.829 1278.16 668.019 1193.84 645.403C1181.69 642.075 1168.99 641.176 1156.49 642.759C1136.15 645.344 1117.76 656.008 1104.69 671.804C1077.05 705.21 992.403 778.004 823.044 694.82C823.044 694.82 762.417 634.212 665.045 705.835C659.012 708.834 652.822 711.504 646.502 713.835C616.627 725.124 556.869 740.851 514.385 707.669C455.603 661.755 472.146 795.829 472.146 795.829Z" fill="#4D8AF0"/>
<path d="M472.146 795.829H1333.79C1333.79 795.829 1278.16 668.019 1193.84 645.403C1181.69 642.075 1168.99 641.176 1156.49 642.759C1136.15 645.344 1117.76 656.008 1104.69 671.804C1077.05 705.21 992.403 778.004 823.044 694.82C823.044 694.82 762.417 634.212 665.045 705.835C659.012 708.834 652.822 711.504 646.502 713.835C616.627 725.124 556.869 740.851 514.385 707.669C455.603 661.755 472.146 795.829 472.146 795.829Z" fill="#4D8AF0"/>
<g opacity="0.3">
<path opacity="0.3" d="M1512.66 33.7742H1441C1441 33.7742 1468 81.5319 1512.66 33.7742Z" fill="#030B44"/>
<path opacity="0.3" d="M1508.33 54.0868L1461.34 0C1461.34 0 1442.98 51.6946 1508.33 54.0868Z" fill="#030B44"/>
</g>
<defs>
<linearGradient id="paint0_linear" x1="1773.35" y1="751.028" x2="1773.35" y2="234.938" gradientUnits="userSpaceOnUse">
<stop stop-color="#808080" stop-opacity="0.25"/>
<stop offset="0.54" stop-color="#808080" stop-opacity="0.12"/>
<stop offset="1" stop-color="#808080" stop-opacity="0.1"/>
</linearGradient>
<clipPath id="clip0">
<rect width="914" height="690" fill="white" transform="matrix(-1 0 0 1 2092 95)"/>
</clipPath>
</defs>
</svg>
